<svg width="238" height="250" viewBox="0 0 238 250" fill="none" xmlns="http://www.w3.org/2000/svg">
<g clip-path="url(#clip0_36_4)">
<rect width="238" height="250" fill="white"/>
<rect width="238" height="250" fill="#201D1D"/>
<ellipse cx="119" cy="127.5" rx="89" ry="89.5" fill="#FFFAFA"/>
<mask id="mask0_36_4" style="mask-type:alpha" maskUnits="userSpaceOnUse" x="29" y="38" width="180" height="180">
<circle cx="118.947" cy="127.839" r="89.2993" fill="#E40613"/>
</mask>
<g mask="url(#mask0_36_4)">
<path d="M143.461 171.072C142.977 166.255 141.898 163.578 137.905 158.865C136.271 161.57 136.764 164.875 137.868 171.055C136.945 182.013 131.472 187.759 122.004 197.701C121.996 197.71 121.988 197.718 121.98 197.727C121.809 197.906 121.637 198.087 121.463 198.27C128.77 199.456 132.563 200.542 137.765 204.643L143.359 204.66C143.348 197.361 143.802 191.908 144.175 187.439C144.732 180.745 145.106 176.257 143.461 171.072Z" fill="#E40613"/>
<path d="M78.9084 170.875C86.1101 190.291 90.6878 197.673 99.523 206.497L118.067 199.497L121.463 198.27C94.6131 177.535 78.2893 164.188 94.3116 156.304C88.1465 158.241 86.6599 161.289 84.7871 167.502L78.9084 170.875Z" fill="#E40613"/>
<path d="M137.868 171.055C136.764 164.875 136.271 161.57 137.905 158.865L136.761 157.946L136.777 152.905C135.735 155.444 131.268 157.758 125.893 160.543L125.892 160.544C125.244 160.879 124.583 161.222 123.913 161.572C123.913 161.572 114.014 162.419 108.792 158.777C102.649 154.698 100.27 151.937 96.4494 146.825C96.21 150.155 96.0561 152.018 95.1859 155.253C95.1182 159.097 94.4797 160.859 90.7503 166.512C97.1569 179.748 106.261 186.346 121.463 198.27C121.637 198.087 121.809 197.906 121.98 197.727L122.004 197.701C131.472 187.759 136.945 182.013 137.868 171.055Z" fill="#E40613"/>
<path d="M94.3116 156.304C78.2893 164.188 94.6131 177.535 121.463 198.27C106.261 186.346 97.1569 179.748 90.7503 166.512C94.4797 160.859 95.1182 159.097 95.1859 155.253L94.3116 156.304Z" fill="#E40613"/>
<path d="M90.308 116.013C90.1103 102.452 90.726 94.9331 95.3173 81.9353C92.8657 81.6969 91.6525 82.2414 89.6266 83.7971L88.8455 84.3446C85.458 92.4792 84.6989 98.0646 85.0094 109.536L85.9203 111.509C87.013 113.598 88.0963 114.477 90.308 116.013Z" fill="#E40613"/>
<path d="M88.8504 68.1721C92.3988 64.8615 100.256 61.8654 104.918 60.8859C106.262 58.5978 106.92 60.1543 109.554 58.9292C98.3949 59.5909 93.7014 62.3223 88.8504 68.1721Z" fill="#E40613"/>
<path d="M109.554 58.9292C106.92 60.1543 106.262 58.5978 104.918 60.8859C131.21 64.2214 147.847 68.0697 154.321 75.1038L152.201 72.6232C143.51 62.1287 137.382 59.393 124.503 58.0586C119.647 59.1624 120.955 58.3639 109.554 58.9292Z" fill="#E40613"/>
<path d="M157.128 86.0646C156.679 85.2509 155.74 85.3536 154.288 86.0699C154.193 86.141 153.525 86.5584 152.696 87.0706C154.959 86.6348 156.909 86.1888 157.128 86.0646Z" fill="#E40613"/>
<path d="M119.019 79.3958C124.992 82.306 129.122 84.615 132.534 87.5015C134.969 89.5613 137.039 91.9152 139.154 94.9913C141.008 95.2005 142.479 95.2318 143.74 95.0515C145.997 94.729 147.583 93.7295 149.491 91.8609C149.375 91.0707 149.236 90.222 149.074 89.2935C149.074 89.2935 151.16 88.0195 152.696 87.0706C149.516 87.6829 145.718 88.2753 145.231 87.9282C144.029 87.0725 142.73 86.1475 141.973 87.6223C140.235 85.0655 133.994 83.4143 126.275 81.372C123.962 80.76 121.516 80.1129 119.019 79.3958Z" fill="#E40613"/>
<path fill-rule="evenodd" clip-rule="evenodd" d="M96.3359 80.1607C96.2561 80.2787 96.1963 80.4102 96.1232 80.571C95.9826 80.8801 95.7929 81.2974 95.3173 81.9353C92.8657 81.6969 91.6525 82.2414 89.6266 83.7971L89.6361 80.6811C87.8876 79.3356 86.3939 76.4096 86.3939 76.4096L86.3892 76.3653C86.1707 74.3321 86.0467 73.1784 86.4094 71.3232C86.8963 70.2642 87.75 69.1987 88.8504 68.1721C92.3988 64.8615 100.256 61.8654 104.918 60.8859C131.21 64.2214 147.847 68.0697 154.321 75.1038C157.146 78.1729 158.591 80.9599 157.128 86.0646C156.679 85.2509 155.74 85.3536 154.288 86.0699C154.193 86.141 153.525 86.5584 152.696 87.0706C149.516 87.6829 145.718 88.2753 145.231 87.9282C144.029 87.0725 142.73 86.1475 141.973 87.6223C140.235 85.0655 133.994 83.4143 126.275 81.372C123.962 80.76 121.516 80.1129 119.019 79.3958C112.282 77.461 106 76.4731 102.804 77.559C102.385 77.7012 101.994 77.8337 101.63 77.9573L101.629 77.9576C97.4546 79.3731 96.694 79.631 96.3359 80.1607ZM149.491 91.8609C151.683 90.3144 152.425 89.0955 152.696 87.0706C154.959 86.6348 156.909 86.1888 157.128 86.0646C157.206 89.4124 156.905 92.2501 156.905 92.2501C155.322 92.7378 154.693 93.1907 154.285 94.4875C153.016 98.5143 152.816 103.899 152.754 115.287C152.646 117.978 151.881 119.528 149.845 122.335L149.569 122.334C150.247 114.685 150.538 110.374 149.035 102.17C150.041 98.3823 150.079 95.876 149.491 91.8609Z" fill="#E40613"/>
<path d="M149.074 89.2935C149.236 90.222 149.375 91.0707 149.491 91.8609C151.683 90.3144 152.425 89.0955 152.696 87.0706C151.16 88.0195 149.074 89.2935 149.074 89.2935Z" fill="#E40613"/>
<path d="M82.5782 125.017C82.9568 121.255 82.9117 116.631 84.9967 113.706C84.6251 112.396 84.6554 111.525 82.4366 111.269C81.0886 112.265 80.9585 116.565 81.7798 122.99L82.5782 125.017Z" fill="#E40613"/>
<path d="M85.993 117.741C85.0312 118.097 84.6704 118.573 84.3823 119.753C83.6707 120.645 84.2027 121.102 84.513 121.998C85.1687 122.367 85.4154 122.582 86.2074 122.645C87.2277 122.366 87.0488 121.585 87.3121 121.182C88.0586 119.991 88.1531 119.415 88.1458 118.435C87.5907 116.901 87.6189 117.145 85.993 117.741Z" fill="#E40613"/>
<path d="M85.115 125.666C87.1911 125.974 86.398 127.289 87.9944 128.608C88.8633 128.987 89.293 129.076 89.919 128.934C89.8129 129.673 88.5846 130.534 88.5846 130.534C88.314 131.083 88.0099 131.332 87.2057 131.676C86.2698 131.668 85.8122 131.445 85.0996 130.707C83.7475 129.387 83.7404 125.387 83.7457 123.637L85.115 125.666Z" fill="#E40613"/>
<path fill-rule="evenodd" clip-rule="evenodd" d="M91.9969 133.523C91.9778 133.151 91.9603 132.796 91.9436 132.454L91.9435 132.451C91.8067 129.664 91.7156 127.809 91.15 125.547C89.5675 123.13 89.3819 119.387 90.308 116.013C88.0963 114.477 87.013 113.598 85.9203 111.509C84.4166 108.48 81.2844 109.225 80.6014 111.722C79.7929 114.931 79.5613 116.615 80.2552 120.015C80.2466 122.856 81.4981 126.617 83.2047 130.059C84.7984 133.624 86.6123 133.544 89.7962 133.516C90.1487 132.746 90.3967 132.38 91.1301 132.1C91.612 132.449 91.7866 132.783 91.9969 133.523ZM84.9967 113.706C82.9117 116.631 82.9568 121.255 82.5782 125.017L81.7798 122.99C80.9585 116.565 81.0886 112.265 82.4366 111.269C84.6554 111.525 84.6251 112.396 84.9967 113.706ZM84.3823 119.753C84.6704 118.573 85.0312 118.097 85.993 117.741C87.6189 117.145 87.5907 116.901 88.1458 118.435C88.1531 119.415 88.0586 119.991 87.3121 121.182C87.0488 121.585 87.2277 122.366 86.2074 122.645C85.4154 122.582 85.1687 122.367 84.513 121.998C84.2027 121.102 83.6707 120.645 84.3823 119.753ZM87.9944 128.608C86.398 127.289 87.1911 125.974 85.115 125.666L83.7457 123.637C83.7404 125.387 83.7475 129.387 85.0996 130.707C85.8122 131.445 86.2698 131.668 87.2057 131.676C88.0099 131.332 88.314 131.083 88.5846 130.534C88.5846 130.534 89.8129 129.673 89.919 128.934C89.293 129.076 88.8633 128.987 87.9944 128.608Z" fill="#E40613"/>
<path fill-rule="evenodd" clip-rule="evenodd" d="M149.569 122.334C149.331 122.895 149.1 123.427 148.876 123.941L148.875 123.943C148.874 123.945 148.873 123.948 148.872 123.95C148.871 123.951 148.871 123.952 148.87 123.954C147.299 127.566 146.105 130.31 145.355 136.343C147.199 137.801 148.494 137.601 150.761 137.414C153.399 135.793 153.946 134.607 154.719 132.431C156.286 126.944 156.739 123.799 155.864 117.908C155.614 116.14 154.7 115.746 152.754 115.287C152.646 117.978 151.881 119.528 149.845 122.335L149.569 122.334ZM153.371 123.583C152.866 122.675 152.456 122.292 151.221 122.11C150.574 122.177 150.292 122.589 149.841 123.572C149.609 124.141 149.576 124.59 149.56 125.45C149.81 126.388 150.064 129.615 150.647 129.669C151.25 129.419 151.543 126.183 151.989 125.732C152.881 124.922 153.117 124.446 153.371 123.583ZM154.329 125.144C154.385 122.887 154.621 121.656 153.384 119.184C153.898 118.216 154.448 118.222 155.359 118.09C155.976 121.989 155.649 124.177 155.191 128.079L155.186 128.125C155.026 129.509 154.934 130.3 153.895 132.016C153.742 132.719 153.401 133.476 152.559 134.281C151.889 133.8 151.743 133.16 151.969 132.423C152.43 131.553 153.247 129.709 153.352 129.677C153.584 129.608 154.278 126.661 154.329 125.144Z" fill="#E40613"/>
<path d="M151.221 122.11C152.456 122.292 152.866 122.675 153.371 123.583C153.117 124.446 152.881 124.922 151.989 125.732C151.543 126.183 151.25 129.419 150.647 129.669C150.064 129.615 149.81 126.388 149.56 125.45C149.576 124.59 149.609 124.141 149.841 123.572C150.292 122.589 150.574 122.177 151.221 122.11Z" fill="#E40613"/>
<path d="M153.384 119.184C154.621 121.656 154.385 122.887 154.329 125.144C154.278 126.661 153.584 129.608 153.352 129.677C153.247 129.709 152.43 131.553 151.969 132.423C151.743 133.16 151.889 133.8 152.559 134.281C153.401 133.476 153.742 132.719 153.895 132.016C154.934 130.3 155.026 129.509 155.186 128.125L155.191 128.079C155.649 124.177 155.976 121.989 155.359 118.09C154.448 118.222 153.898 118.216 153.384 119.184Z" fill="#E40613"/>
<path d="M147.755 131.012C149.831 131.32 149.038 132.635 150.634 133.954C151.503 134.333 151.933 134.423 152.559 134.281C152.453 135.019 151.225 135.88 151.225 135.88C150.954 136.429 150.65 136.678 149.846 137.022C148.91 137.015 148.452 136.791 147.74 136.053C146.387 134.733 146.922 133.447 146.928 131.697L147.755 131.012Z" fill="#E40613"/>
<path fill-rule="evenodd" clip-rule="evenodd" d="M112.311 132.302C109.671 132.081 108.64 132.707 106.421 135.604C106.551 136.483 105.916 137.225 105.818 137.877C105.735 138.437 106.121 138.545 106.356 139.036C106.427 139.183 106.497 139.33 106.558 139.478C107.019 140.592 108.029 141.269 109.13 142.007C109.845 142.488 110.6 142.994 111.268 143.663C116.52 147.44 125.107 147.285 128.693 142.753C128.858 142.503 129.008 142.275 129.148 142.063C129.152 142.057 129.156 142.051 129.16 142.045C129.689 141.245 130.432 140.608 131.212 139.939C132.006 139.259 132.419 138.516 132.954 137.555C133.069 137.349 133.189 137.133 133.32 136.905C132.179 133.823 129.411 132.583 126.204 131.748C121.11 133.428 118.164 134.184 112.311 132.302ZM113.773 134.047C110.389 133.174 109.04 133.513 107.944 136.092C107.97 136.539 107.692 137.113 107.802 137.495C108.043 138.328 108.946 139.473 109.621 140.221C109.825 140.446 110.101 140.354 110.347 140.59C110.848 141.07 111.595 141.9 112.28 142.474C112.28 142.474 122.013 146.879 126.997 142.519C127.009 142.508 127.71 142.07 127.721 142.059C129.931 139.976 132.283 138.533 132.243 136.104C130.232 133.459 127.587 132.586 123.996 134.245C120.469 134.818 117.43 134.535 113.773 134.047Z" fill="#E40613"/>
<path d="M113.816 104.903C107.352 101.409 103.583 99.9822 94.6956 105.441L94.6985 105.373C94.8463 101.913 94.93 99.952 102.098 98.6357C109.696 98.7844 112.366 100.082 113.816 104.903Z" fill="#E40613"/>
<path d="M124.678 105.939C128.548 104.486 131.683 103.697 134.317 103.618C137.58 103.334 140.402 104.108 143.427 107.056C144.342 107.379 144.85 106.464 144.85 106.464C144.031 105.225 143.379 104.481 141.926 103.064C138.935 100.154 136.515 99.5988 130.838 100.51C126.814 101.134 125.584 103.772 124.678 105.939Z" fill="#E40613"/>
<path d="M112.28 142.474C112.28 142.474 122.013 146.879 126.997 142.519L127.721 142.059C128.084 141.482 128.863 140.664 129.106 140.218C122.501 141.175 117.399 141.77 110.347 140.59C110.848 141.07 111.595 141.9 112.28 142.474Z" fill="#E40613"/>
<path d="M110.347 140.59C117.399 141.77 122.501 141.175 129.106 140.218C129.304 139.852 129.62 139.843 129.742 139.533C122.606 140.534 116.983 140.856 109.621 140.221C109.825 140.446 110.101 140.354 110.347 140.59Z" fill="#E40613"/>
<path d="M116.768 128.97C116.475 127.57 116.287 126.805 114.989 126.261C113.572 125.442 112.669 125.403 110.816 126.248C114.515 125.894 115.541 126.776 116.768 128.97Z" fill="#E40613"/>
<path d="M127.316 128.177C123.985 126.328 122.31 125.935 120.527 129.256C122.546 127.457 123.965 127.075 127.316 128.177Z" fill="#E40613"/>
<path d="M100.165 78.455C112.961 79.6033 120.092 81.3408 132.643 87.5939C132.578 87.5473 132.514 87.5011 132.451 87.4555C127.578 83.9519 125.606 83.1167 117.081 79.5061L116.945 79.3513L116.805 79.1926C109.679 77.9612 106.49 77.7514 100.165 78.455Z" fill="#E40613"/>
<path d="M119.019 79.3958C112.282 77.461 106 76.4731 102.804 77.559C102.385 77.7012 101.994 77.8337 101.63 77.9573L101.629 77.9576C101.085 78.142 100.599 78.3067 100.165 78.455C106.49 77.7514 109.679 77.9612 116.805 79.1926C116.852 79.2124 116.898 79.2816 116.944 79.3505L116.945 79.3513L117.081 79.5061L119.019 79.3958Z" fill="#E40613"/>
<path d="M119.019 79.3958L117.081 79.5061C125.606 83.1167 127.578 83.9519 132.451 87.4555L132.534 87.5015C129.122 84.615 124.992 82.306 119.019 79.3958Z" fill="#E40613"/>
<path fill-rule="evenodd" clip-rule="evenodd" d="M112.243 109.538C107.394 105.741 101.891 104.455 96.748 108.982C102.1 110.779 107.648 110.996 112.243 109.538Z" fill="#E40613"/>
<path fill-rule="evenodd" clip-rule="evenodd" d="M127.215 110.85C133.034 106.945 136.254 106.891 141.881 112.636C136.197 113.124 133.004 112.873 127.215 110.85Z" fill="#E40613"/>
<path fill-rule="evenodd" clip-rule="evenodd" d="M100.795 135.045C100.829 134.975 100.863 134.904 100.897 134.833C102.77 129.714 105.475 125.072 109.869 121.251C109.434 122.541 109.018 123.171 108.302 123.904C107.901 124.936 108.271 125.162 108.897 125.544C109.18 125.717 109.514 125.921 109.854 126.245L110.816 126.248C114.515 125.894 115.541 126.776 116.768 128.97C118.173 129.702 118.97 130.012 120.527 129.256C122.546 127.457 123.965 127.075 127.316 128.177C128.615 127.23 128.788 126.578 128.746 125.34L128.7 125.157C128.7 125.157 127.451 123.942 126.233 122.4C128.401 122.935 129.429 123.54 131.223 124.682C133.65 127.239 134.373 129.366 135.379 132.322L135.437 132.491C135.465 132.574 135.493 132.658 135.522 132.742C135.548 132.817 135.573 132.892 135.599 132.968C135.629 133.138 135.661 133.304 135.691 133.465C135.586 133.548 135.468 133.627 135.352 133.704C135.032 133.918 134.728 134.121 134.762 134.381C134.836 134.946 134.93 135.671 133.32 136.905C132.179 133.823 129.411 132.583 126.204 131.748C121.11 133.428 118.164 134.184 112.311 132.302C109.671 132.081 108.64 132.707 106.421 135.604C105.601 135.758 104.816 135.998 104.103 136.216C102.987 136.557 102.048 136.844 101.429 136.663C100.992 136.534 100.864 135.786 100.795 135.045ZM130.073 123.556C130.058 123.542 130.043 123.528 130.028 123.514C128.806 122.699 127.996 122.606 126.868 122.477C126.668 122.454 126.457 122.43 126.233 122.4C124.188 122.156 123.781 120.766 123.054 118.277C122.879 117.679 122.685 117.018 122.446 116.294C121.687 112.11 121.72 109.889 123.485 106.399C123.865 106.249 124.239 106.105 124.606 105.967L124.631 105.957L124.678 105.939C125.279 105.768 125.862 105.599 126.429 105.434L126.43 105.434C129.439 104.561 131.99 103.821 134.317 103.618C138.444 103.496 141.345 105.117 143.926 108.661L144.834 111.505C142.213 108.737 140.314 107.793 136.274 107.034C131.136 106.705 128.43 107.026 124.391 109.885C123.395 113.53 124.368 115.285 126.045 118.309C126.08 118.374 126.117 118.439 126.153 118.505C126.5 120.109 127.289 120.887 128.332 121.916L128.333 121.917C128.595 122.176 128.874 122.451 129.166 122.759C129.488 123.031 129.79 123.296 130.073 123.556Z" fill="#E40613"/>
<path d="M135.691 133.465C135.536 128.936 133.878 126.744 130.309 123.71C130.213 123.64 130.119 123.575 130.028 123.514C130.043 123.528 130.058 123.542 130.073 123.556C130.098 123.579 130.123 123.602 130.148 123.625C130.541 123.987 130.897 124.338 131.223 124.682C133.65 127.239 134.373 129.366 135.379 132.322L135.437 132.491C135.465 132.574 135.493 132.658 135.522 132.742C135.548 132.817 135.573 132.892 135.599 132.968C135.629 133.138 135.661 133.304 135.691 133.465Z" fill="#E40613"/>
<path d="M126.233 122.4C128.401 122.935 129.429 123.54 131.223 124.682C130.897 124.338 130.541 123.987 130.148 123.625C130.123 123.602 130.098 123.579 130.073 123.556C130.058 123.542 130.043 123.528 130.028 123.514C128.806 122.699 127.996 122.606 126.868 122.477C126.668 122.454 126.457 122.43 126.233 122.4Z" fill="#E40613"/>
<path d="M130.309 123.71C129.948 123.403 129.567 123.087 129.166 122.759C129.471 123.016 129.758 123.268 130.028 123.514C130.119 123.575 130.213 123.64 130.309 123.71Z" fill="#E40613"/>
<path d="M113.773 134.047C110.389 133.174 109.04 133.513 107.944 136.092C107.97 136.539 107.692 137.113 107.802 137.495C108.635 135.434 110.785 135.444 113.767 135.864C119.039 136.002 121.957 135.972 126.882 135.125C128.399 135.439 130.051 135.594 130.498 137.198C130.575 137.865 130.02 138.83 129.742 139.533C129.62 139.843 129.304 139.852 129.106 140.218C128.863 140.664 128.084 141.482 127.721 142.059C129.931 139.976 132.283 138.533 132.243 136.104C130.232 133.459 127.587 132.586 123.996 134.245C120.469 134.818 117.43 134.535 113.773 134.047Z" fill="#E40613"/>
<path d="M113.767 135.864C110.785 135.444 108.635 135.434 107.802 137.495C108.043 138.328 108.946 139.473 109.621 140.221C116.983 140.856 122.606 140.534 129.742 139.533C130.02 138.83 130.575 137.865 130.498 137.198C130.051 135.594 128.399 135.439 126.882 135.125C121.957 135.972 119.039 136.002 113.767 135.864Z" fill="#E40613"/>
<path d="M113.816 104.903C107.352 101.409 103.583 99.9822 94.6956 105.441C94.1559 106.884 93.5381 107.652 92.0716 108.968C91.3995 109.599 92.194 109.593 93.4477 109.584C93.5509 109.583 93.6573 109.582 93.7661 109.582C93.9869 109.383 94.1987 109.191 94.4038 109.005L94.4051 109.004L94.4057 109.003C96.6481 106.969 98.0853 105.665 101.548 104.866C106.421 103.616 109.281 104.2 113.49 106.607C113.987 106.892 114.504 107.203 115.046 107.538L113.816 104.903Z" fill="#E40613"/>
<path d="M109.869 121.251C111.801 119.751 112.763 118.953 113.776 117.78L115.046 107.538C114.504 107.203 113.987 106.892 113.49 106.607L114.127 108.033L114.126 108.295C113.266 112.999 112.146 115.717 110.428 119.889C110.428 119.89 110.428 119.891 110.427 119.892C110.426 119.895 110.424 119.899 110.423 119.902C110.245 120.335 110.06 120.783 109.869 121.251Z" fill="#E40613"/>
<path d="M105.818 137.877C105.916 137.225 106.551 136.483 106.421 135.604C105.601 135.758 104.816 135.998 104.103 136.216C102.987 136.557 102.048 136.844 101.429 136.663C102.408 137.854 103.166 138.189 105.818 137.877Z" fill="#E40613"/>
<path d="M149.035 102.17C150.041 98.3823 150.079 95.876 149.491 91.8609C147.583 93.7295 145.997 94.729 143.74 95.0515C147.185 97.0143 148.045 98.7505 149.035 102.17Z" fill="#E40613"/>
<path d="M96.748 108.982C102.1 110.779 107.648 110.996 112.243 109.538C106.184 111.755 102.793 111.158 96.748 108.982Z" fill="#E40613"/>
<path d="M141.881 112.636C136.197 113.124 133.004 112.873 127.215 110.85C127.586 111.072 127.948 111.3 128.308 111.526C128.618 111.647 128.926 111.773 129.236 111.9C132.159 113.095 135.271 114.367 141.881 112.636Z" fill="#E40613"/>
<path d="M96.748 108.982C101.891 104.455 107.394 105.741 112.243 109.538L113.19 109.44C105.772 103.725 102.113 104.452 96.0079 109.059L96.748 108.982Z" fill="#E40613"/>
<path d="M127.215 110.85C133.034 106.945 136.254 106.891 141.881 112.636L142.952 112.965C142.267 112.382 141.644 111.798 141.052 111.241L141.051 111.241C137.473 107.88 134.975 105.535 126.14 110.505L127.215 110.85Z" fill="#E40613"/>
<path fill-rule="evenodd" clip-rule="evenodd" d="M125.893 160.543L125.892 160.544C125.244 160.879 124.583 161.222 123.913 161.572C123.913 161.572 114.014 162.419 108.792 158.777C102.649 154.698 100.27 151.937 96.4494 146.825C93.6912 142.104 92.2979 139.385 91.9969 133.523C91.9778 133.151 91.9603 132.796 91.9436 132.454L91.9435 132.451C91.8067 129.664 91.7156 127.809 91.15 125.547C89.5675 123.13 89.3819 119.387 90.308 116.013C90.1103 102.452 90.726 94.9331 95.3173 81.9353C95.7929 81.2974 95.9826 80.8801 96.1232 80.571C96.1963 80.4102 96.2561 80.2787 96.3359 80.1607C96.6474 79.7 97.2633 79.4449 100.165 78.455C112.961 79.6033 120.092 81.3408 132.643 87.5939C132.578 87.5473 132.514 87.5011 132.451 87.4555L132.534 87.5015C134.969 89.5613 137.039 91.9152 139.154 94.9913C141.008 95.2005 142.479 95.2318 143.74 95.0515C147.185 97.0143 148.045 98.7505 149.035 102.17C150.538 110.374 150.247 114.685 149.569 122.334C149.331 122.895 149.1 123.427 148.876 123.941L148.875 123.943L148.872 123.95L148.87 123.954C147.299 127.566 146.105 130.31 145.355 136.343C144.454 138.603 143.775 140.644 142.301 145.453C139.57 148.069 138.445 149.743 136.777 152.905C135.735 155.444 131.268 157.758 125.893 160.543ZM116.945 79.3513L116.805 79.1926C116.852 79.2124 116.898 79.2816 116.944 79.3505L116.945 79.3513ZM100.897 134.833C100.863 134.904 100.829 134.975 100.795 135.045C100.864 135.786 100.992 136.534 101.429 136.663C102.408 137.854 103.166 138.189 105.818 137.877C105.735 138.437 106.121 138.545 106.356 139.036C106.427 139.183 106.497 139.33 106.558 139.478C107.019 140.592 108.029 141.269 109.13 142.007C117.389 149.745 128.364 150.409 131.212 139.939C132.006 139.259 132.419 138.516 132.954 137.555C133.069 137.349 133.189 137.133 133.32 136.905C134.93 135.671 134.836 134.946 134.762 134.381C134.728 134.121 135.032 133.918 135.352 133.704C135.468 133.627 135.586 133.548 135.691 133.465C135.536 128.936 133.878 126.744 130.309 123.71C129.948 123.403 129.567 123.087 129.166 122.759C128.874 122.451 128.595 122.176 128.333 121.917L128.332 121.916C127.289 120.887 126.5 120.109 126.153 118.505C126.117 118.439 126.08 118.374 126.045 118.309C124.368 115.285 123.395 113.53 124.391 109.885C128.43 107.026 131.136 106.705 136.274 107.034C140.314 107.793 142.213 108.737 144.834 111.505L143.926 108.661C141.345 105.117 138.444 103.496 134.317 103.618C137.58 103.334 140.402 104.108 143.427 107.056C144.342 107.379 144.85 106.464 144.85 106.464C144.031 105.225 143.379 104.481 141.926 103.064C138.935 100.154 136.515 99.5988 130.838 100.51C126.814 101.134 125.584 103.772 124.678 105.939L124.631 105.957L124.606 105.967C124.239 106.105 123.865 106.249 123.485 106.399C121.72 109.889 121.687 112.11 122.446 116.294C122.685 117.018 122.879 117.679 123.054 118.277C123.781 120.766 124.188 122.156 126.233 122.4C127.451 123.942 128.7 125.157 128.7 125.157L128.746 125.34C128.788 126.578 128.615 127.23 127.316 128.177C123.985 126.328 122.31 125.935 120.527 129.256C118.97 130.012 118.173 129.702 116.768 128.97C116.475 127.57 116.287 126.805 114.989 126.261C113.572 125.442 112.669 125.403 110.816 126.248L109.854 126.245C109.514 125.921 109.18 125.717 108.897 125.544C108.271 125.162 107.901 124.936 108.302 123.904C109.018 123.171 109.434 122.541 109.869 121.251C111.801 119.751 112.763 118.953 113.776 117.78L115.046 107.538L113.816 104.903C112.366 100.082 109.696 98.7844 102.098 98.6357C94.93 99.952 94.8463 101.913 94.6985 105.373L94.6956 105.441C94.1559 106.884 93.5381 107.652 92.0716 108.968C91.3995 109.599 92.194 109.593 93.4477 109.584C93.5509 109.583 93.6573 109.582 93.7661 109.582C93.9869 109.383 94.1987 109.191 94.4038 109.005L94.4051 109.004L94.4057 109.003C96.6481 106.969 98.0853 105.665 101.548 104.866C106.421 103.616 109.281 104.2 113.49 106.607L114.127 108.033L114.126 108.295C113.266 112.999 112.146 115.717 110.428 119.889L110.427 119.892L110.423 119.902C110.245 120.335 110.06 120.783 109.869 121.251C105.475 125.072 102.77 129.714 100.897 134.833ZM126.14 110.505L127.215 110.85C127.586 111.072 127.948 111.3 128.308 111.526C128.618 111.647 128.926 111.773 129.236 111.9C132.159 113.095 135.271 114.367 141.881 112.636L142.952 112.965C142.267 112.382 141.644 111.798 141.052 111.241L141.051 111.241C137.473 107.88 134.975 105.535 126.14 110.505ZM112.243 109.538C106.184 111.755 102.793 111.158 96.748 108.982L96.0079 109.059C102.113 104.452 105.772 103.725 113.19 109.44L112.243 109.538Z" fill="#E40613"/>
<path d="M128.693 142.753C125.107 147.285 116.52 147.44 111.268 143.663C110.6 142.994 109.845 142.488 109.13 142.007C117.389 149.745 128.364 150.409 131.212 139.939C130.432 140.608 129.689 141.245 129.16 142.045L129.148 142.063C129.008 142.275 128.858 142.503 128.693 142.753Z" fill="#E40613"/>
<path d="M134.317 103.618C131.683 103.697 128.548 104.486 124.678 105.939C125.279 105.768 125.862 105.599 126.429 105.434L126.43 105.434C129.439 104.561 131.99 103.821 134.317 103.618Z" fill="#E40613"/>
<path d="M99.523 206.497C90.6878 197.673 86.1101 190.291 78.9084 170.875L78.9084 171.072C65.0671 173.376 52.664 173.081 48.3251 183.115L48.3251 217.064L189.396 217.493L189.476 191.191C188.274 186.565 186.303 184.15 176.855 180.659C164.672 180.633 157.147 177.61 143.461 171.072C145.106 176.257 144.732 180.745 144.175 187.439C143.802 191.908 143.348 197.361 143.359 204.66L137.765 204.643C132.563 200.542 128.77 199.456 121.463 198.27L118.067 199.497L99.523 206.497Z" fill="#E40613"/>
</g>
</g>
<defs>
<clipPath id="clip0_36_4">
<rect width="238" height="250" fill="white"/>
</clipPath>
</defs>
</svg>
